# xmcd
#
# Track frame offsets:
#    150
#    11138
#    29853
#    50950
#    63403
#    82651
#    93343
#    118750
#    131154
#    146417
#    186397
#    194211
#    206984
#    219433
#    253198
#
# Disc length: 3759 seconds
#
# Revision: 1
# Processed by: cddbd v1.5.1PL2 Copyright (c) Steve Scherf et al.
# Submitted via: dBpowerAMP V4.0
#
DISCID=f50ead0f
DTITLE=Stevie Ray Vaughan and Double Trouble - In Step
DYEAR=1900
DGENRE=Blues
TTITLE0=The house is rockin'
TTITLE1=Crossfire
TTITLE2=Tightrope
TTITLE3=Let me love you baby
TTITLE4=Leave my girl alone
TTITLE5=Travis walk
TTITLE6=Wall of denial
TTITLE7=Scratch-N-Sniff
TTITLE8=Love me darlin'
TTITLE9=Rivira Paradise
TTITLE10=SRV Speaks
TTITLE11=The house is rockin' (Live)
TTITLE12=Let me love you baby (Live)
TTITLE13=Texas Flood (Live)
TTITLE14=Life without you (Live)
EXTD=
EXTT0=
EXTT1=
EXTT2=
EXTT3=
EXTT4=
EXTT5=
EXTT6=
EXTT7=
EXTT8=
EXTT9=
EXTT10=
EXTT11=
EXTT12=
EXTT13=
EXTT14=
PLAYORDER=
